<svg width="24" height="24" viewBox="0 0 24 24" fill="none" xmlns="http://www.w3.org/2000/svg">
<mask id="mask0_127_326" style="mask-type:alpha" maskUnits="userSpaceOnUse" x="0" y="0" width="24" height="24">
<rect width="24" height="24" fill="#D9D9D9"/>
</mask>
<g mask="url(#mask0_127_326)">
<path d="M5 21.2515C4.45 21.2515 3.97917 21.0623 3.5875 20.684C3.19583 20.3056 3 19.8508 3 19.3195V15.4556H5V16.4216H15V4.82989H5V5.79586H3V1.93195C3 1.40067 3.19583 0.945853 3.5875 0.567512C3.97917 0.189171 4.45 0 5 0H15C15.55 0 16.0208 0.189171 16.4125 0.567512C16.8042 0.945853 17 1.40067 17 1.93195V19.3195C17 19.8508 16.8042 20.3056 16.4125 20.684C16.0208 21.0623 15.55 21.2515 15 21.2515H5ZM5 18.3536V19.3195H15V18.3536H5ZM1.4 15.4556L0 14.1033L5.6 8.69379H2V6.76184H9V13.5237H7V10.0462L1.4 15.4556ZM5 2.89793H15V1.93195H5V2.89793Z" fill="white"/>
</g>
</svg>
