<svg width="67" height="67" viewBox="0 0 67 67" fill="none" xmlns="http://www.w3.org/2000/svg">
<g opacity="0.7">
<circle cx="33.5" cy="33.5" r="32.5" fill="white" stroke="#FE2917" stroke-width="2"/>
<mask id="mask0_127_216" style="mask-type:alpha" maskUnits="userSpaceOnUse" x="14" y="14" width="39" height="39">
<rect x="14" y="14" width="38.49" height="38.49" fill="#D9D9D9"/>
</mask>
<g mask="url(#mask0_127_216)">
<path d="M17.2075 44.4713V34.8488C17.2075 34.1271 17.3545 33.4722 17.6486 32.8842C17.9426 32.2962 18.3301 31.7749 18.8113 31.3205V26.83C18.8113 25.4936 19.279 24.3576 20.2146 23.4221C21.1501 22.4866 22.2861 22.0188 23.6225 22.0188H30.0375C30.6523 22.0188 31.227 22.1324 31.7615 22.3596C32.2961 22.5868 32.7906 22.9009 33.245 23.3018C33.6994 22.9009 34.1939 22.5868 34.7285 22.3596C35.2631 22.1324 35.8377 22.0188 36.4525 22.0188H42.8675C44.204 22.0188 45.34 22.4866 46.2755 23.4221C47.211 24.3576 47.6788 25.4936 47.6788 26.83V31.3205C48.1599 31.7749 48.5475 32.2962 48.8415 32.8842C49.1355 33.4722 49.2825 34.1271 49.2825 34.8488V44.4713H46.075V41.2638H20.415V44.4713H17.2075ZM34.8488 30.0375H44.4713V26.83C44.4713 26.3757 44.3176 25.9948 44.0102 25.6874C43.7028 25.38 43.3219 25.2263 42.8675 25.2263H36.4525C35.9981 25.2263 35.6172 25.38 35.3098 25.6874C35.0025 25.9948 34.8488 26.3757 34.8488 26.83V30.0375ZM22.0188 30.0375H31.6413V26.83C31.6413 26.3757 31.4876 25.9948 31.1802 25.6874C30.8728 25.38 30.4919 25.2263 30.0375 25.2263H23.6225C23.1681 25.2263 22.7872 25.38 22.4798 25.6874C22.1725 25.9948 22.0188 26.3757 22.0188 26.83V30.0375ZM20.415 38.0563H46.075V34.8488C46.075 34.3944 45.9213 34.0135 45.6139 33.7061C45.3066 33.3987 44.9257 33.245 44.4713 33.245H22.0188C21.5644 33.245 21.1835 33.3987 20.8761 33.7061C20.5687 34.0135 20.415 34.3944 20.415 34.8488V38.0563Z" fill="#FE2917"/>
</g>
</g>
</svg>
