<svg width="125" height="120" viewBox="0 0 125 120" fill="none" xmlns="http://www.w3.org/2000/svg">
<mask id="mask0_127_273" style="mask-type:alpha" maskUnits="userSpaceOnUse" x="0" y="0" width="125" height="120">
<rect width="125" height="120" fill="#D9D9D9"/>
</mask>
<g mask="url(#mask0_127_273)">
<path d="M62.4518 105C55.9848 105 49.9071 103.816 44.2188 101.448C38.5313 99.0783 33.5755 95.8704 29.3516 91.8237C25.1276 87.7771 21.7839 83.0188 19.3203 77.5488C16.8568 72.0779 15.625 66.2325 15.625 60.0125C15.625 53.7925 16.8555 47.9433 19.3164 42.465C21.7773 36.9875 25.1172 32.2225 29.3359 28.17C33.5547 24.1175 38.5156 20.9096 44.2188 18.5462C49.9219 16.1821 56.0156 15 62.5 15C67.8307 15 72.8741 15.7917 77.6302 17.375C82.3872 18.9583 86.7253 21.1667 90.6445 24L86.8984 27.7213C83.467 25.2721 79.6918 23.3729 75.5729 22.0238C71.4549 20.6746 67.0972 20 62.5 20C50.9549 20 41.1241 23.8958 33.0078 31.6875C24.8915 39.4792 20.8333 48.9167 20.8333 60C20.8333 71.0833 24.8915 80.5208 33.0078 88.3125C41.1241 96.1042 50.9549 100 62.5 100C65.5451 100 68.503 99.6858 71.3737 99.0575C74.2452 98.4292 76.9965 97.5608 79.6276 96.4525L83.5339 100.231C80.375 101.77 77.026 102.949 73.487 103.769C69.9488 104.59 66.2704 105 62.4518 105ZM101.562 97.5V82.5H85.9375V77.5H101.562V62.5H106.771V77.5H122.396V82.5H106.771V97.5H101.562ZM55.0078 79.5387L36.4779 61.75L40.1641 58.2113L55.0078 72.4613L105.689 23.7787L109.375 27.3175L55.0078 79.5387Z" fill="#1C1B1F"/>
</g>
</svg>
