<svg width="67" height="67" viewBox="0 0 67 67" fill="none" xmlns="http://www.w3.org/2000/svg">
<g opacity="0.7">
<circle cx="33.5" cy="33.5" r="32.5" fill="white" stroke="#FE2917" stroke-width="2"/>
<mask id="mask0_127_222" style="mask-type:alpha" maskUnits="userSpaceOnUse" x="14" y="14" width="39" height="39">
<rect x="14" y="14" width="38.49" height="38.49" fill="#D9D9D9"/>
</mask>
<g mask="url(#mask0_127_222)">
<path d="M22.0188 49.2825L15.6038 31.6413L23.6225 26.83V17.2075H30.0375V26.83L38.0563 31.6413L31.6413 49.2825H22.0188ZM41.2638 49.2825C40.8094 49.2825 40.4285 49.1288 40.1211 48.8214C39.8137 48.5141 39.66 48.1332 39.66 47.6788C39.66 47.2244 39.8137 46.8435 40.1211 46.5361C40.4285 46.2287 40.8094 46.075 41.2638 46.075H46.075V42.8675H41.2638C40.8094 42.8675 40.4285 42.7138 40.1211 42.4064C39.8137 42.0991 39.66 41.7182 39.66 41.2638C39.66 40.8094 39.8137 40.4285 40.1211 40.1211C40.4285 39.8137 40.8094 39.66 41.2638 39.66H46.075V36.4525H41.2638C40.8094 36.4525 40.4285 36.2988 40.1211 35.9914C39.8137 35.6841 39.66 35.3032 39.66 34.8488C39.66 34.3944 39.8137 34.0135 40.1211 33.7061C40.4285 33.3987 40.8094 33.245 41.2638 33.245H46.075V30.0375H41.2638C40.8094 30.0375 40.4285 29.8838 40.1211 29.5764C39.8137 29.2691 39.66 28.8882 39.66 28.4338C39.66 27.9794 39.8137 27.5985 40.1211 27.2911C40.4285 26.9837 40.8094 26.83 41.2638 26.83H46.075V23.6225H41.2638C40.8094 23.6225 40.4285 23.4688 40.1211 23.1614C39.8137 22.8541 39.66 22.4732 39.66 22.0188C39.66 21.5644 39.8137 21.1835 40.1211 20.8761C40.4285 20.5687 40.8094 20.415 41.2638 20.415H47.6788C48.5608 20.415 49.3159 20.7291 49.9441 21.3572C50.5722 21.9854 50.8863 22.7405 50.8863 23.6225V46.075C50.8863 46.9571 50.5722 47.7122 49.9441 48.3403C49.3159 48.9685 48.5608 49.2825 47.6788 49.2825H41.2638ZM24.264 46.075H29.396L34.1271 33.0045L29.1554 30.0375H24.5046L19.5329 33.0045L24.264 46.075Z" fill="#FE2917"/>
</g>
</g>
</svg>
