<svg width="256" height="66" viewBox="0 0 256 66" fill="none" xmlns="http://www.w3.org/2000/svg">
<g filter="url(#filter0_d_110_239)">
<path d="M52.1083 3.05702C52.7059 3.3482 53.16 3.76742 53.44 4.29087C53.6574 5.05677 53.4416 5.62205 53.0133 6.305C54.0196 7.08482 55.0281 7.8624 56.0468 8.63126C56.3338 8.84798 56.6202 9.06522 56.9066 9.2824C57.2507 9.54318 57.5947 9.80392 57.9391 10.0644C58.4906 10.4816 59.0409 10.8997 59.5887 11.3201C59.7907 11.4751 59.993 11.6299 60.1954 11.7847C60.4519 11.9809 60.707 12.1782 60.9612 12.3764C61.0763 12.4653 61.1915 12.5541 61.3066 12.6429C61.4576 12.7604 61.4576 12.7604 61.6116 12.8803C61.8538 13.0753 61.8538 13.0753 62.1866 13.0479C62.3845 12.9142 62.3845 12.9142 62.58 12.736C62.9231 12.4368 63.2869 12.1682 63.6647 11.8994C64.0433 11.6261 64.4077 11.3406 64.7733 11.0557C65.3988 10.5703 66.0282 10.0891 66.6641 9.61284C67.041 9.32991 67.4137 9.04338 67.7866 8.75698C68.862 7.93145 69.9497 7.11724 71.04 6.305C70.9718 6.20747 70.9036 6.10994 70.8333 6.00945C70.504 5.46204 70.4133 4.91627 70.6133 4.32371C70.8626 3.79661 71.2848 3.38371 71.8721 3.09123C72.5256 2.87308 73.2911 2.88692 73.9708 3.03478C74.6072 3.2688 75.0385 3.67549 75.3466 4.18141C75.5179 4.91275 75.4993 5.5824 74.9866 6.21743C74.5539 6.6193 74.0928 6.79829 73.4933 7.00556C73.512 7.09694 73.5307 7.18832 73.55 7.28247C73.7262 8.14316 73.902 9.0039 74.0774 9.8647C74.1676 10.3072 74.258 10.7498 74.3486 11.1923C74.4361 11.6192 74.5232 12.0462 74.61 12.4732C74.6433 12.6362 74.6766 12.7992 74.7101 12.9622C74.7569 13.1902 74.8033 13.4183 74.8496 13.6465C74.8705 13.7478 74.8705 13.7478 74.8919 13.8511C74.9509 14.1442 74.9866 14.4136 74.9866 14.7118C75.0658 14.7029 75.145 14.694 75.2266 14.6848C76.2355 14.5714 77.2444 14.4582 78.2533 14.3451C78.3335 14.3361 78.4136 14.3271 78.4962 14.3178C81.0232 14.0346 83.5506 13.7548 86.08 13.4858C86.092 13.4145 86.104 13.3432 86.1163 13.2698C86.1335 13.1758 86.1506 13.0818 86.1683 12.985C86.1847 12.892 86.2011 12.7991 86.218 12.7033C86.3632 12.186 86.7512 11.8213 87.2733 11.5209C87.9537 11.2106 88.7888 11.1886 89.5383 11.3533C90.1517 11.5817 90.5973 11.9679 90.8946 12.4609C91.0981 12.9841 91.1182 13.6251 90.8896 14.1439C90.5349 14.6345 90.0242 15.0074 89.3866 15.2372C88.5224 15.4026 87.8485 15.2457 87.04 14.9745C86.269 15.75 85.5273 16.5391 84.8074 17.3471C84.3776 17.8292 83.9402 18.305 83.4946 18.7773C83.1069 19.1882 82.7236 19.6019 82.34 20.0153C82.2652 20.0959 82.1904 20.1764 82.1134 20.2595C81.6718 20.7357 81.2329 21.2134 80.7966 21.6928C80.3525 22.1789 79.9017 22.661 79.4528 23.1441C79.0031 23.6283 78.5563 24.114 78.1125 24.6018C77.573 25.1903 77.0259 25.7741 76.48 26.3587C76.0486 26.3089 75.6748 26.231 75.2721 26.0956C75.1639 26.06 75.0557 26.0243 74.9443 25.9876C74.8284 25.9493 74.7126 25.911 74.5933 25.8716C66.3087 23.2096 56.8377 23.1626 48.64 26.096C48.5711 26.1229 48.5023 26.1498 48.4314 26.1775C47.9475 26.3634 47.9475 26.3634 47.6784 26.3399C47.416 26.2547 47.3208 26.1601 47.1508 25.9762C47.0925 25.914 47.0342 25.8517 46.9741 25.7876C46.9123 25.7196 46.8504 25.6516 46.7866 25.5815C46.7212 25.511 46.6557 25.4405 46.5883 25.3679C46.0646 24.8014 45.552 24.2282 45.0407 23.6542C44.5497 23.1043 44.0432 22.5653 43.5312 22.0285C43.135 21.6126 42.7446 21.1937 42.36 20.7706C41.8703 20.2319 41.3765 19.6959 40.88 19.1615C40.8081 19.0841 40.7362 19.0067 40.6622 18.9269C40.2965 18.5333 39.9305 18.1401 39.5641 17.747C38.6293 16.7432 37.7082 15.7319 36.8 14.7118C36.7421 14.736 36.6842 14.7603 36.6246 14.7853C36.5482 14.817 36.4719 14.8488 36.3933 14.8814C36.2801 14.9287 36.2801 14.9287 36.1646 14.9769C35.5282 15.2256 34.7737 15.2462 34.0954 15.0928C33.4776 14.8633 33.0316 14.4821 32.7321 13.9852C32.5289 13.463 32.5102 12.8246 32.7333 12.3053C33.0948 11.8006 33.633 11.344 34.3266 11.1706C35.02 11.0649 35.6852 11.1059 36.3 11.4005C36.8285 11.7047 37.2797 12.0839 37.44 12.6101C37.4559 12.9028 37.4504 13.1931 37.44 13.4858C37.5144 13.4894 37.5888 13.493 37.6655 13.4967C38.7971 13.5592 39.9161 13.6841 41.0396 13.8087C41.2513 13.832 41.463 13.8552 41.6747 13.8784C42.1157 13.9268 42.5567 13.9754 42.9976 14.0241C43.562 14.0865 44.1264 14.1486 44.6909 14.2105C45.2316 14.2698 45.7722 14.3293 46.3129 14.3889C46.4154 14.4001 46.5179 14.4114 46.6235 14.423C46.9139 14.455 47.2043 14.4871 47.4947 14.5192C47.58 14.5286 47.6653 14.5379 47.7532 14.5476C48.1924 14.5963 48.6298 14.6497 49.0666 14.7118C49.0785 14.6284 49.0905 14.5451 49.1027 14.4593C49.2339 13.5604 49.3996 12.6683 49.5808 11.7754C49.6092 11.6341 49.6376 11.4928 49.666 11.3515C49.7397 10.9846 49.8138 10.6178 49.888 10.251C49.964 9.87472 50.0397 9.49834 50.1154 9.12197C50.2632 8.38726 50.4115 7.65261 50.56 6.91799C50.4413 6.89125 50.3227 6.8645 50.2005 6.83694C49.6195 6.69575 49.2629 6.45671 48.925 6.04468C48.5581 5.46026 48.4919 4.80778 48.7104 4.17423C48.9843 3.66507 49.454 3.29843 50.0583 3.05291C50.6955 2.88584 51.4763 2.8693 52.1083 3.05702Z" fill="#232D2F"/>
<path d="M46.9333 31.6133C50.1013 31.6133 53.2693 31.6133 56.5333 31.6133C57.273 33.7387 57.273 33.7387 57.6142 34.8013C57.6391 34.8787 57.664 34.9562 57.6897 35.036C57.7154 35.116 57.741 35.1959 57.7675 35.2782C57.823 35.4503 57.8785 35.6223 57.934 35.7943C58.0512 36.1578 58.1684 36.5212 58.2854 36.8847C58.4687 37.4542 58.6525 38.0237 58.8362 38.5931C58.867 38.6885 58.8978 38.7839 58.9296 38.8822C58.9919 39.0755 59.0543 39.2688 59.1167 39.4621C59.2105 39.7528 59.3043 40.0435 59.3981 40.3342C59.9444 42.0276 60.4916 43.7208 61.0407 45.4137C61.1334 45.6996 61.226 45.9856 61.3185 46.2717C61.4259 46.6036 61.5335 46.9354 61.6412 47.2673C61.6802 47.3876 61.7192 47.508 61.7581 47.6283C61.8105 47.7907 61.8633 47.9531 61.9161 48.1154C61.96 48.251 61.96 48.251 62.0049 48.3893C62.071 48.6003 62.071 48.6003 62.1867 48.7771C62.216 48.6854 62.2453 48.5937 62.2755 48.4993C63.574 44.4352 64.8732 40.3712 66.18 36.3089C66.2863 35.9782 66.3926 35.6476 66.4988 35.3169C66.6235 34.9285 66.7485 34.5402 66.8735 34.1519C66.9189 34.0108 66.9643 33.8697 67.0096 33.7286C67.0715 33.5358 67.1336 33.343 67.1958 33.1502C67.2303 33.0429 67.2648 32.9357 67.3004 32.8252C67.4367 32.4194 67.586 32.0165 67.7333 31.6133C70.9365 31.6133 74.1397 31.6133 77.44 31.6133C77.44 40.1383 77.44 48.6633 77.44 57.4466C75.4336 57.4466 73.4272 57.4466 71.36 57.4466C71.3248 51.0023 71.2896 44.558 71.2533 37.9184C70.8311 39.306 70.4088 40.6937 69.9738 42.1235C69.7069 43.0003 69.44 43.877 69.1731 44.7538C69.033 45.2142 68.8928 45.6746 68.7527 46.1351C68.7351 46.1928 68.7176 46.2505 68.6995 46.3099C68.4157 47.2422 68.132 48.1746 67.8483 49.1069C67.5573 50.0633 67.2662 51.0197 66.975 51.9761C66.8114 52.5135 66.6479 53.0508 66.4844 53.5882C66.3307 54.0936 66.1769 54.599 66.023 55.1043C65.9664 55.2902 65.9098 55.476 65.8533 55.6619C65.7764 55.9149 65.6993 56.1679 65.6222 56.4209C65.5997 56.4951 65.5772 56.5693 65.554 56.6457C65.4715 56.9159 65.3874 57.1822 65.28 57.4466C63.2032 57.4466 61.1264 57.4466 58.9867 57.4466C57.982 54.2025 56.9814 50.9576 55.9925 47.7102C55.9724 47.644 55.9522 47.5779 55.9315 47.5097C55.594 46.4016 55.2571 45.2933 54.92 44.1851C54.2908 42.1171 53.6616 40.0491 53.0133 37.9184C52.9781 44.3627 52.9429 50.807 52.9067 57.4466C50.9355 57.4466 48.9643 57.4466 46.9333 57.4466C46.9333 48.9216 46.9333 40.3966 46.9333 31.6133Z" fill="#FE2917"/>
<path d="M142.4 31.6134C145.093 31.608 147.786 31.6025 150.56 31.597C151.405 31.5946 152.251 31.5922 153.122 31.5897C154.167 31.5885 154.167 31.5885 154.658 31.5883C154.996 31.5881 155.334 31.5871 155.672 31.5856C163.154 31.555 163.154 31.555 165.541 33.4427C165.686 33.5616 165.83 33.6821 165.973 33.8026C166.044 33.8592 166.116 33.9157 166.189 33.974C167.75 35.3019 168.257 37.2781 168.245 39.062C168.191 40.9669 167.439 42.6222 165.847 44.0265C164.266 45.2525 162.277 45.7379 160.213 46.1501C160.284 46.1852 160.356 46.2203 160.429 46.2565C163.23 47.6749 164.942 49.7068 166.651 51.9606C166.867 52.2456 167.086 52.5292 167.305 52.8127C167.983 53.6911 168.654 54.5735 169.325 55.4558C169.564 55.7709 169.804 56.0857 170.045 56.4C170.096 56.4656 170.146 56.5313 170.198 56.599C170.29 56.7195 170.383 56.8399 170.475 56.9602C170.773 57.3493 170.773 57.3493 170.773 57.4467C168.893 57.5692 167.005 57.6568 165.117 57.6168C164.946 57.6138 164.775 57.6127 164.603 57.6136C163.597 57.6165 162.926 57.5142 162.188 56.9218C161.719 56.5157 161.369 56.1218 161.173 55.581C160.747 54.6254 160.053 53.8404 159.343 53.0135C159.011 52.6233 158.689 52.2272 158.366 51.8316C157.916 51.2838 157.464 50.737 157.01 50.192C156.964 50.1373 156.919 50.0826 156.872 50.0262C156.411 49.4764 155.918 48.9496 155.413 48.4269C155.358 48.3659 155.303 48.3048 155.246 48.2419C154.441 47.3909 153.252 47.0219 152 46.8507C150.944 46.8218 149.888 46.7929 148.8 46.7631C148.8 50.2887 148.8 53.8143 148.8 57.4467C146.688 57.4467 144.576 57.4467 142.4 57.4467C142.4 48.9217 142.4 40.3967 142.4 31.6134ZM148.8 36.0795C148.8 38.2179 148.8 40.3564 148.8 42.5597C152.026 42.5708 152.026 42.5708 155.252 42.5318C155.41 42.5286 155.568 42.5255 155.726 42.5228C158.389 42.49 158.389 42.49 160.642 41.4466C161.514 40.6189 161.564 39.6786 161.512 38.6351C161.443 37.9191 161.054 37.3725 160.456 36.8625C159.558 36.2331 158.474 36.0512 157.325 36.0596C157.232 36.0596 157.14 36.0595 157.044 36.0595C156.74 36.0596 156.437 36.061 156.133 36.0624C155.922 36.0627 155.71 36.0629 155.498 36.0631C154.944 36.0638 154.389 36.0655 153.834 36.0674C153.167 36.0696 152.5 36.0704 151.833 36.0714C150.822 36.0731 149.811 36.0764 148.8 36.0795Z" fill="#FE2917"/>
<path d="M112.96 31.6133C120.704 31.6133 128.448 31.6133 136.427 31.6133C136.427 33.0871 136.427 34.5609 136.427 36.0794C130.83 36.0794 125.233 36.0794 119.467 36.0794C119.467 37.9289 119.467 39.7784 119.467 41.6839C124.676 41.6839 129.886 41.6839 135.253 41.6839C135.253 43.1577 135.253 44.6315 135.253 46.15C130.044 46.15 124.834 46.15 119.467 46.15C119.467 48.433 119.467 50.7159 119.467 53.0681C125.275 53.0681 131.083 53.0681 137.067 53.0681C137.067 54.513 137.067 55.9579 137.067 57.4466C129.111 57.4466 121.156 57.4466 112.96 57.4466C112.96 48.9216 112.96 40.3966 112.96 31.6133Z" fill="#FE2917"/>
<path d="M195.413 31.6133C197.701 31.6133 199.989 31.6133 202.347 31.6133C202.663 32.2665 202.979 32.9198 203.305 33.5929C203.534 34.0659 203.763 34.5389 203.992 35.0118C204.287 35.6207 204.582 36.2296 204.877 36.8386C206.279 39.7442 206.279 39.7442 207.723 42.6359C208.613 44.3908 209.455 46.1624 210.309 47.9291C210.705 48.7474 211.101 49.5655 211.497 50.3836C211.594 50.5849 211.692 50.7863 211.789 50.9876C212.321 52.0859 212.855 53.1831 213.398 54.2777C213.446 54.3742 213.493 54.4707 213.543 54.5701C213.769 55.028 213.997 55.4857 214.225 55.943C214.305 56.1046 214.385 56.2661 214.466 56.4276C214.502 56.5009 214.539 56.5743 214.577 56.6498C214.61 56.7168 214.644 56.7838 214.678 56.8529C214.707 56.9108 214.736 56.9688 214.765 57.0285C214.827 57.1839 214.827 57.1839 214.827 57.4466C212.503 57.4466 210.18 57.4466 207.787 57.4466C207.406 56.6375 207.025 55.8283 206.633 54.9946C206.454 54.6133 206.454 54.6133 206.271 54.2243C206.175 54.0213 206.08 53.8184 205.985 53.6154C205.935 53.5112 205.886 53.407 205.836 53.2997C205.788 53.1984 205.741 53.0971 205.692 52.9928C205.651 52.9057 205.61 52.8186 205.568 52.7288C205.416 52.4046 205.268 52.0795 205.12 51.7545C201.002 51.7545 196.883 51.7545 192.64 51.7545C191.917 53.3984 191.917 53.3984 191.194 55.0424C191.103 55.2492 191.012 55.4559 190.921 55.6627C190.851 55.8225 190.851 55.8225 190.78 55.9855C190.711 56.1401 190.711 56.1401 190.642 56.2978C190.603 56.3867 190.564 56.4755 190.523 56.5671C190.386 56.8636 190.232 57.155 190.08 57.4466C187.792 57.4466 185.504 57.4466 183.147 57.4466C184.489 54.5415 184.489 54.5415 185.131 53.1996C185.253 52.946 185.374 52.6923 185.495 52.4386C185.663 52.0872 185.831 51.7358 185.998 51.3844C186.362 50.6233 186.725 49.8617 187.087 49.1C187.121 49.0278 187.155 48.9556 187.191 48.8813C187.822 47.5541 188.449 46.2257 189.075 44.8971C189.731 43.5088 190.39 42.1217 191.052 40.7355C191.685 39.4091 192.313 38.0812 192.94 36.7526C193.534 35.4926 194.13 34.2332 194.733 32.9761C194.777 32.8844 194.777 32.8844 194.822 32.7909C194.903 32.6228 194.983 32.4548 195.064 32.2868C195.109 32.194 195.153 32.1011 195.199 32.0055C195.307 31.7884 195.307 31.7884 195.413 31.6133ZM198.72 37.8308C198.694 37.8903 198.668 37.9499 198.641 38.0112C196.405 43.114 196.405 43.114 195.493 45.1429C195.463 45.2112 195.432 45.2794 195.4 45.3498C194.907 46.4473 194.907 46.4473 194.757 46.7392C194.648 46.9438 194.648 46.9438 194.667 47.2008C197.412 47.2008 200.158 47.2008 202.987 47.2008C202.902 46.7834 202.788 46.4346 202.606 46.0457C202.563 45.9518 202.563 45.9518 202.519 45.8561C202.422 45.6456 202.324 45.4353 202.227 45.225C202.158 45.0752 202.088 44.9253 202.019 44.7754C201.864 44.4371 201.708 44.099 201.551 43.7609C201.242 43.0919 200.935 42.4223 200.628 41.7527C200.572 41.6301 200.515 41.5075 200.459 41.3849C200.375 41.201 200.29 41.017 200.206 40.8331C199.906 40.1807 199.607 39.5284 199.307 38.8762C199.234 38.7176 199.234 38.7176 199.16 38.5557C199.049 38.3141 198.938 38.0724 198.827 37.8308C198.791 37.8308 198.756 37.8308 198.72 37.8308Z" fill="#FE2917"/>
<path d="M83.6267 31.6133C102.493 31.6133 102.493 31.6133 105.067 33.5398C105.137 33.5912 105.207 33.6426 105.279 33.6955C106.857 34.9167 107.749 36.72 107.859 38.4829C107.915 41.1973 107.543 43.5088 105.148 45.5675C101.35 48.547 94.7802 47.8138 90.1334 47.8138C90.1334 50.9927 90.1334 54.1715 90.1334 57.4466C87.9862 57.4466 85.839 57.4466 83.6267 57.4466C83.6267 48.9216 83.6267 40.3966 83.6267 31.6133ZM90.1334 36.0794C90.1334 38.4779 90.1334 40.8765 90.1334 43.3477C95.2817 43.6588 95.2817 43.6588 100.053 42.1218C100.957 41.3101 101.263 40.4321 101.25 39.3503C101.173 38.3689 100.609 37.6097 99.7592 36.9397C98.4455 36.0622 96.8146 36.0656 95.2063 36.0708C95.0773 36.0709 94.9482 36.071 94.8153 36.0711C94.3369 36.0716 93.8584 36.0728 93.38 36.0739C92.3086 36.0757 91.2372 36.0775 90.1334 36.0794Z" fill="#FE2917"/>
<path d="M218.24 31.7881C220.387 31.7881 222.534 31.7881 224.747 31.7881C224.747 38.8104 224.747 45.8327 224.747 53.0677C229.956 53.0677 235.166 53.0677 240.533 53.0677C240.533 54.5127 240.533 55.9576 240.533 57.4463C233.177 57.4463 225.82 57.4463 218.24 57.4463C218.24 48.9791 218.24 40.5119 218.24 31.7881Z" fill="#FE2917"/>
<path d="M173.973 31.6133C176.085 31.6133 178.197 31.6133 180.373 31.6133C180.373 40.1383 180.373 48.6633 180.373 57.4466C178.261 57.4466 176.149 57.4466 173.973 57.4466C173.973 48.9216 173.973 40.3966 173.973 31.6133Z" fill="#FE2917"/>
<path d="M34.6666 31.6133C36.7786 31.6133 38.8906 31.6133 41.0666 31.6133C41.0666 40.1383 41.0666 48.6633 41.0666 57.4466C38.9546 57.4466 36.8426 57.4466 34.6666 57.4466C34.6666 48.9216 34.6666 40.3966 34.6666 31.6133Z" fill="#FE2917"/>
<path d="M15.36 40.0195C19.6192 40.0195 23.8784 40.0195 28.2667 40.0195C28.2667 40.5975 28.2667 41.1755 28.2667 41.7709C26.4715 41.7709 24.6763 41.7709 22.8267 41.7709C22.8267 43.2737 22.8267 44.7764 22.8267 46.3246C24.6219 46.3246 26.4171 46.3246 28.2667 46.3246C28.2667 46.9026 28.2667 47.4805 28.2667 48.076C24.0075 48.076 19.7483 48.076 15.36 48.076C15.36 47.4981 15.36 46.9201 15.36 46.3246C17.12 46.3246 18.88 46.3246 20.6933 46.3246C20.6933 44.8219 20.6933 43.3192 20.6933 41.7709C18.9333 41.7709 17.1733 41.7709 15.36 41.7709C15.36 41.193 15.36 40.615 15.36 40.0195Z" fill="#232D2F"/>
<path d="M15.36 31.7002C16.0288 31.7002 16.6976 31.7002 17.3867 31.7002C17.3867 33.1451 17.3867 34.59 17.3867 36.0787C18.5131 36.0787 19.6395 36.0787 20.8 36.0787C20.8 34.7494 20.8 33.4201 20.8 32.0505C21.4688 32.0505 22.1376 32.0505 22.8267 32.0505C22.8267 33.3798 22.8267 34.7091 22.8267 36.0787C23.9531 36.0787 25.0795 36.0787 26.24 36.0787C26.24 34.6338 26.24 33.1889 26.24 31.7002C26.9088 31.7002 27.5776 31.7002 28.2667 31.7002C28.2667 33.7231 28.2667 35.746 28.2667 37.8301C24.0075 37.8301 19.7483 37.8301 15.36 37.8301C15.36 35.8073 15.36 33.7844 15.36 31.7002Z" fill="#232D2F"/>
<path d="M15.36 49.5654C16.0288 49.5654 16.6976 49.5654 17.3867 49.5654C17.3867 50.6058 17.3867 51.6461 17.3867 52.718C20.9771 52.718 24.5675 52.718 28.2667 52.718C28.2667 53.2959 28.2667 53.8739 28.2667 54.4694C24.6763 54.4694 21.0859 54.4694 17.3867 54.4694C17.3867 55.5386 17.3867 56.6079 17.3867 57.7095C16.7179 57.7095 16.0491 57.7095 15.36 57.7095C15.36 55.022 15.36 52.3344 15.36 49.5654Z" fill="#232D2F"/>
</g>
<defs>
<filter id="filter0_d_110_239" x="-4" y="0" width="264" height="70" filterUnits="userSpaceOnUse" color-interpolation-filters="sRGB">
<feFlood flood-opacity="0" result="BackgroundImageFix"/>
<feColorMatrix in="SourceAlpha" type="matrix" values="0 0 0 0 0 0 0 0 0 0 0 0 0 0 0 0 0 0 127 0" result="hardAlpha"/>
<feOffset dy="4"/>
<feGaussianBlur stdDeviation="2"/>
<feComposite in2="hardAlpha" operator="out"/>
<feColorMatrix type="matrix" values="0 0 0 0 0 0 0 0 0 0 0 0 0 0 0 0 0 0 0.25 0"/>
<feBlend mode="normal" in2="BackgroundImageFix" result="effect1_dropShadow_110_239"/>
<feBlend mode="normal" in="SourceGraphic" in2="effect1_dropShadow_110_239" result="shape"/>
</filter>
</defs>
</svg>
