<?xml version="1.0" encoding="UTF-8"?>
<svg version="1.1" xmlns="http://www.w3.org/2000/svg" width="2400" height="708">
<path d="M0 0 C5.60243724 3.32511065 9.86008707 8.11229901 12.484375 14.08984375 C14.52292532 22.83588222 12.49962692 29.29098906 8.484375 37.08984375 C17.91837455 45.99491345 27.37314511 54.874413 36.92382812 63.65429688 C39.61411269 66.12908931 42.29893182 68.60980046 44.984375 71.08984375 C48.20963405 74.06782328 51.43542669 77.0452126 54.6640625 80.01953125 C59.833675 84.78374604 64.99309012 89.55819071 70.12841797 94.359375 C72.02255194 96.12961169 73.91934489 97.89696393 75.81640625 99.6640625 C78.22101441 101.90493646 80.61278701 104.158373 82.99609375 106.421875 C84.07535665 107.43637261 85.15477523 108.45070463 86.234375 109.46484375 C87.64976562 110.80675781 87.64976562 110.80675781 89.09375 112.17578125 C91.36427325 114.4023468 91.36427325 114.4023468 94.484375 114.08984375 C96.33968884 112.56282351 96.33968884 112.56282351 98.171875 110.52734375 C101.38848039 107.11094921 104.79929945 104.04372524 108.34106445 100.97485352 C111.89035922 97.85330153 115.30649729 94.59343602 118.734375 91.33984375 C124.59858119 85.79640595 130.49950299 80.30206945 136.4609375 74.86328125 C139.99389522 71.63240676 143.4881957 68.36040623 146.984375 65.08984375 C157.0658389 55.66292075 167.2634409 46.36514025 177.484375 37.08984375 C176.845 35.97609375 176.205625 34.86234375 175.546875 33.71484375 C172.45994684 27.46381422 171.60929508 21.23143652 173.484375 14.46484375 C175.82163385 8.44560177 179.77989453 3.73063734 185.28515625 0.390625 C191.41184112 -2.10044467 198.5885993 -1.94247536 204.9609375 -0.25390625 C210.92756799 2.41840702 214.97070828 7.0625103 217.859375 12.83984375 C219.46541257 21.19123912 219.29049875 28.83825115 214.484375 36.08984375 C210.42749671 40.67893627 206.10442868 42.72294827 200.484375 45.08984375 C200.65976807 46.1333197 200.83516113 47.17679565 201.01586914 48.25189209 C202.66747274 58.08046552 204.31566009 67.9096065 205.960495 77.73931503 C206.80625185 82.7929721 207.65321565 87.84642072 208.50292969 92.89941406 C209.32273485 97.77481893 210.1393801 102.65074345 210.9538269 107.5270462 C211.26528177 109.3883784 211.57787935 111.24951976 211.89163208 113.110466 C212.33051099 115.71475125 212.765341 118.31968226 213.19921875 120.92480469 C213.39558426 122.08142609 213.39558426 122.08142609 213.59591675 123.26141357 C214.1493624 126.6079216 214.484375 129.68521353 214.484375 133.08984375 C215.22684479 132.98819412 215.96931458 132.88654449 216.73428345 132.78181458 C226.19244311 131.4871624 235.65081837 130.19409242 245.109375 128.90234375 C245.86074486 128.79972858 246.61211472 128.69711342 247.38625336 128.5913887 C271.07685165 125.35651496 294.77193192 122.1612194 318.484375 119.08984375 C318.5968457 118.27580078 318.70931641 117.46175781 318.82519531 116.62304688 C318.98600586 115.54990234 319.14681641 114.47675781 319.3125 113.37109375 C319.4662207 112.30955078 319.61994141 111.24800781 319.77832031 110.15429688 C321.13925882 104.24748494 324.77723404 100.08225425 329.671875 96.65234375 C336.05034143 93.10875129 343.87929808 92.85687154 350.90625 94.73828125 C356.65711145 97.34623005 360.83465734 101.75639363 363.62109375 107.38671875 C365.52902341 113.36086953 365.71789317 120.68046305 363.57421875 126.60546875 C360.2491081 132.20790599 355.46191974 136.46555582 349.484375 139.08984375 C341.38215012 140.97833226 335.0643482 139.18717763 327.484375 136.08984375 C320.25662275 144.94582591 313.30261239 153.95699177 306.55371094 163.18334961 C302.52496048 168.68875364 298.42403337 174.12228477 294.24609375 179.515625 C290.61208186 184.20800668 287.01861037 188.93137025 283.421875 193.65234375 C282.72078613 194.57257324 282.01969727 195.49280273 281.29736328 196.44091797 C277.15802729 201.87886918 273.04351765 207.33376051 268.953125 212.80859375 C264.78946637 218.36013859 260.56342589 223.86479779 256.35424805 229.38183594 C252.13842058 234.91043253 247.95023684 240.45752285 243.7890625 246.02734375 C238.7313719 252.74807159 233.60233895 259.41496258 228.484375 266.08984375 C224.43988333 265.52157879 220.93627284 264.63216402 217.16015625 263.0859375 C216.14606689 262.67891602 215.13197754 262.27189453 214.0871582 261.85253906 C213.00136475 261.41522461 211.91557129 260.97791016 210.796875 260.52734375 C133.12848373 230.12990917 44.33846511 229.5927074 -32.515625 263.08984375 C-33.16080078 263.39712402 -33.80597656 263.7044043 -34.47070312 264.02099609 C-39.00745086 266.14383802 -39.00745086 266.14383802 -41.53076172 265.87573242 C-43.989871 264.90207033 -44.88325273 263.82246287 -46.4765625 261.72265625 C-47.023125 261.01173828 -47.5696875 260.30082031 -48.1328125 259.56835938 C-48.71289062 258.79169922 -49.29296875 258.01503906 -49.890625 257.21484375 C-50.50421875 256.40982422 -51.1178125 255.60480469 -51.75 254.77539062 C-56.65989097 248.30736079 -61.46525461 241.76081939 -66.25878906 235.20629883 C-70.86210005 228.92654474 -75.61063578 222.77195343 -80.41064453 216.6418457 C-84.12512578 211.89302429 -87.78497644 207.10927888 -91.390625 202.27734375 C-95.98118848 196.12577295 -100.61095456 190.00557006 -105.265625 183.90234375 C-105.93948242 183.01844971 -106.61333984 182.13455566 -107.30761719 181.22387695 C-110.73521137 176.72973052 -114.16659948 172.23851642 -117.6015625 167.75 C-126.36564925 156.28748597 -135.00102964 144.73895515 -143.515625 133.08984375 C-144.05832031 133.36699219 -144.60101563 133.64414063 -145.16015625 133.9296875 C-145.87558594 134.29191406 -146.59101563 134.65414062 -147.328125 135.02734375 C-148.38966797 135.56681641 -148.38966797 135.56681641 -149.47265625 136.1171875 C-155.43827502 138.95741517 -162.51148272 139.19214494 -168.87109375 137.44140625 C-174.66247525 134.82016201 -178.84444024 130.46667068 -181.65234375 124.79296875 C-183.55697291 118.82915255 -183.73235675 111.539061 -181.640625 105.609375 C-178.25183896 99.84620926 -173.20599765 94.63204893 -166.703125 92.65234375 C-160.20271913 91.44530514 -153.96661814 91.91259257 -148.203125 95.27734375 C-143.2480351 98.75091182 -139.01781511 103.08108333 -137.515625 109.08984375 C-137.36628022 112.43207693 -137.41823028 115.74721169 -137.515625 119.08984375 C-136.8178746 119.13085205 -136.12012421 119.17186035 -135.40122986 119.21411133 C-124.7924425 119.9276559 -114.30217425 121.35474267 -103.76953125 122.77734375 C-101.7847014 123.04284993 -99.79983229 123.30806282 -97.81492615 123.57299805 C-93.68043868 124.12558056 -89.54627192 124.6804812 -85.41235352 125.23730469 C-80.12148573 125.9499476 -74.83009033 126.65857423 -69.53848362 127.3657074 C-64.46948667 128.04324785 -59.40074593 128.72269536 -54.33203125 129.40234375 C-53.37115664 129.53103851 -52.41028202 129.65973328 -51.42028999 129.79232788 C-48.6974505 130.15738063 -45.97479586 130.5237805 -43.25219727 130.890625 C-42.45262604 130.99766754 -41.65305481 131.10471008 -40.82925415 131.21499634 C-36.71122265 131.77142779 -32.61086887 132.38051043 -28.515625 133.08984375 C-28.40397003 132.13823364 -28.29231506 131.18662354 -28.17727661 130.20617676 C-26.94799293 119.94152651 -25.39377795 109.7549184 -23.6953125 99.55859375 C-23.42885658 97.94482832 -23.16267754 96.33101716 -22.89675903 94.71716309 C-22.20576384 90.52804643 -21.51108246 86.33954974 -20.81555176 82.15118408 C-20.10261038 77.85377171 -19.39326708 73.55576554 -18.68359375 69.2578125 C-17.29773212 60.86791427 -15.90796401 52.47866946 -14.515625 44.08984375 C-15.62784424 43.7844165 -16.74006348 43.47898926 -17.88598633 43.16430664 C-23.33276913 41.55192411 -26.67595913 38.82228864 -29.84375 34.1171875 C-33.28357677 27.44343908 -33.90348391 19.99251694 -31.85546875 12.7578125 C-29.2873966 6.94351927 -24.88375949 2.75672663 -19.21875 -0.046875 C-13.24459922 -1.95480466 -5.9250057 -2.14367442 0 0 Z " fill="#242E2F" transform="translate(488.515625,34.91015625)"/>
<path d="M0 0 C29.7 0 59.4 0 90 0 C96.93441563 24.27045472 96.93441563 24.27045472 100.13294983 36.40481567 C100.36643694 37.28953678 100.59992405 38.17425789 100.84048653 39.08578873 C101.0813291 39.99849407 101.32217167 40.91119942 101.5703125 41.8515625 C102.09037841 43.8160402 102.61064268 45.78046538 103.13108826 47.74484253 C104.2302734 51.8949514 105.32828486 56.04536813 106.42532349 60.19604492 C108.14437419 66.69968561 109.86662715 73.20247545 111.58959961 79.70507812 C111.87828887 80.79464939 112.16697813 81.88422066 112.46441555 83.00680923 C113.04924553 85.21406748 113.63408282 87.4213238 114.21892738 89.62857819 C115.09837795 92.94803652 115.97759315 96.26755712 116.85673523 99.58709717 C121.9783202 118.9249608 127.1086863 138.26047098 132.25604248 157.5914917 C133.12551968 160.857189 133.99384484 164.1231892 134.86114502 167.38946533 C135.86756814 171.17965552 136.87599275 174.96930694 137.88609505 178.75851822 C138.2520531 180.13271589 138.61727851 181.5071089 138.98171806 182.88171005 C139.47350694 184.73612916 139.96823305 186.58976859 140.46313477 188.44335938 C140.87511864 189.99186584 140.87511864 189.99186584 141.29542542 191.57165527 C141.91538531 193.98099115 141.91538531 193.98099115 143 196 C143.27465591 194.95291367 143.54931183 193.90582733 143.83229065 192.82701111 C156.00622963 146.41754943 168.18610176 100.00961327 180.4369812 53.62039185 C181.43407321 49.84476716 182.43040199 46.0689424 183.42605591 42.29293823 C184.59554063 37.85798198 185.76671429 33.42347521 186.93922806 28.98931885 C187.36499388 27.3781913 187.79021447 25.76691955 188.21482468 24.15548706 C188.79519872 21.95341538 189.37768771 19.7519133 189.96069336 17.55053711 C190.28420273 16.32580185 190.6077121 15.10106659 190.94102478 13.83921814 C192.21931598 9.20488991 193.61860581 4.60464728 195 0 C225.03 0 255.06 0 286 0 C286 97.35 286 194.7 286 295 C267.19 295 248.38 295 229 295 C228.67 221.41 228.34 147.82 228 72 C224.04128906 87.84644531 220.08257813 103.69289063 216.00390625 120.01953125 C213.50208243 130.03193338 211.00019938 140.04432064 208.49804688 150.05664062 C207.18414676 155.31420482 205.87025864 160.57177202 204.55639648 165.8293457 C204.39171881 166.48832015 204.22704113 167.1472946 204.05737323 167.82623798 C201.39687783 178.47257192 198.73721383 189.11911339 196.07785536 199.76573137 C193.34974066 210.6875332 190.62071853 221.60910801 187.89090103 232.53048438 C186.35716354 238.66674073 184.82384386 244.80310082 183.29150581 250.9397068 C181.85041305 256.71084464 180.40822687 262.4817081 178.96518707 268.25235939 C178.43466244 270.37473396 177.90454372 272.49721005 177.37485313 274.61979294 C176.65373936 277.5091955 175.93118977 280.39823522 175.20826721 283.28718567 C174.9971779 284.13445577 174.78608858 284.98172587 174.56860262 285.85467082 C173.79525353 288.94011289 173.00631394 291.98105817 172 295 C152.53 295 133.06 295 113 295 C103.5807205 257.95439377 94.20016272 220.89955835 84.9296875 183.81640625 C84.7408079 183.06090634 84.5519283 182.30540643 84.35732508 181.52701259 C81.193906 168.8728351 78.03481784 156.21757746 74.875 143.5625 C68.97625 119.946875 63.0775 96.33125 57 72 C56.67 145.59 56.34 219.18 56 295 C37.52 295 19.04 295 0 295 C0 197.65 0 100.3 0 0 Z " fill="#FF2917" transform="translate(440,361)"/>
<path d="M0 0 C25.245 -0.061875 50.49 -0.12375 76.5 -0.1875 C84.42580078 -0.21481201 92.35160156 -0.24212402 100.51757812 -0.27026367 C110.31152344 -0.28381348 110.31152344 -0.28381348 114.91882324 -0.28633118 C118.08783471 -0.28908888 121.2566903 -0.30017877 124.42565918 -0.31672668 C194.56963425 -0.66661876 194.56963425 -0.66661876 216.94506836 20.88989258 C218.30940057 22.24729338 219.65530416 23.62314402 221 25 C221.66644531 25.64582031 222.33289062 26.29164063 223.01953125 26.95703125 C237.65497463 42.12106852 242.40800515 64.68806561 242.30029297 85.05859375 C241.79216888 106.81179802 234.73901243 125.71370969 219.8125 141.75 C204.99019555 155.75027024 186.34666615 161.29349134 167 166 C167.66644531 166.40089844 168.33289062 166.80179688 169.01953125 167.21484375 C195.27979323 183.41173261 211.32860966 206.61556689 227.34912109 232.35253906 C229.37805848 235.60628012 231.43045543 238.84475947 233.484375 242.08276367 C239.84332117 252.11370212 246.13078941 262.18961867 252.41796875 272.265625 C254.6635559 275.8638383 256.91518203 279.45807496 259.17578125 283.046875 C259.64741699 283.79686768 260.11905273 284.54686035 260.60498047 285.31958008 C261.47069277 286.69555191 262.33811072 288.07045262 263.20751953 289.4440918 C266 293.88809748 266 293.88809748 266 295 C248.36802113 296.39848334 230.66819981 297.39944991 212.97598839 296.94212532 C211.36929628 296.90822493 209.7619958 296.89548181 208.1549778 296.90557671 C198.71727722 296.93844715 192.4308537 295.77094033 185.51391602 289.00634766 C181.11900034 284.36868302 177.83155509 279.87045756 175.9921875 273.6953125 C172.00502517 262.78221132 165.4953564 253.81869008 158.84338379 244.37515259 C155.72499149 239.9192359 152.70724932 235.39677612 149.6796875 230.87890625 C145.46216843 224.62384464 141.22885197 218.37972331 136.96484375 212.15625 C136.53803314 211.53130142 136.11122253 210.90635284 135.67147827 210.26246643 C131.35610763 203.98403589 126.73103171 197.96850798 122 192 C121.48179688 191.30261719 120.96359375 190.60523438 120.4296875 189.88671875 C112.88803295 180.16875817 101.73314134 175.95552356 90 174 C80.1 173.67 70.2 173.34 60 173 C60 213.26 60 253.52 60 295 C40.2 295 20.4 295 0 295 C0 197.65 0 100.3 0 0 Z M60 51 C60 75.42 60 99.84 60 125 C90.24770961 125.12681385 90.24770961 125.12681385 120.49060059 124.68161011 C121.97173641 124.64449969 123.45294053 124.61000265 124.9342041 124.57839966 C149.8982839 124.20381858 149.8982839 124.20381858 171.01953125 112.2890625 C179.1968567 102.83755813 179.66693329 92.1001489 179.17041016 80.18359375 C178.5323449 72.0075828 174.87852669 65.76528145 169.2734375 59.94140625 C160.85763419 52.75471511 150.68953667 50.67658343 139.921875 50.77294922 C139.05263901 50.77265717 138.18340302 50.77236511 137.28782654 50.77206421 C134.44177943 50.77344701 131.59600084 50.78895838 128.75 50.8046875 C126.76603336 50.80842137 124.78206486 50.81126657 122.7980957 50.81326294 C117.59656614 50.82086997 112.39514968 50.84049313 107.19366455 50.8626709 C100.9418827 50.88680582 94.69006286 50.89592427 88.43824768 50.90757751 C78.95875332 50.92691934 69.47950674 50.96526239 60 51 Z " fill="#FF2917" transform="translate(1335,361)"/>
<path d="M0 0 C72.6 0 145.2 0 220 0 C220 16.83 220 33.66 220 51 C167.53 51 115.06 51 61 51 C61 72.12 61 93.24 61 115 C109.84 115 158.68 115 209 115 C209 131.83 209 148.66 209 166 C160.16 166 111.32 166 61 166 C61 192.07 61 218.14 61 245 C115.45 245 169.9 245 226 245 C226 261.5 226 278 226 295 C151.42 295 76.84 295 0 295 C0 197.65 0 100.3 0 0 Z " fill="#FF2917" transform="translate(1059,361)"/>
<path d="M0 0 C21.45 0 42.9 0 65 0 C67.96484375 7.45980469 70.9296875 14.91960937 73.984375 22.60546875 C76.13230154 28.00684435 78.28048414 33.40811758 80.42902946 38.80924702 C83.1948733 45.76227179 85.96014954 52.71552033 88.72314453 59.66967773 C101.8677551 92.85042864 101.8677551 92.85042864 115.40727234 125.8709259 C123.75195164 145.91066852 131.63980083 166.14128463 139.6496582 186.31640625 C143.35936501 195.66022626 147.07092838 205.00330728 150.78504562 214.34537506 C151.69883329 216.64415523 152.61231037 218.94305889 153.52547073 221.24208832 C158.50774781 233.78404823 163.51936921 246.31301911 168.60498047 258.81347656 C169.05273929 259.91521021 169.5004981 261.01694386 169.96182537 262.15206337 C172.08762305 267.38101194 174.21909535 272.60751654 176.36061096 277.83004761 C177.11224574 279.67455027 177.86371541 281.51912023 178.61499023 283.36376953 C178.96087881 284.20117298 179.30676739 285.03857643 179.66313744 285.90135574 C179.97361834 286.66642818 180.28409924 287.43150063 180.60398865 288.21975708 C180.87535361 288.88177691 181.14671858 289.54379673 181.42630672 290.22587776 C182 292 182 292 182 295 C160.22 295 138.44 295 116 295 C112.431875 285.76 108.86375 276.52 105.1875 267 C103.50563599 262.64554688 103.50563599 262.64554688 101.78979492 258.203125 C100.89498902 255.88542844 100.00021172 253.56772085 99.10546875 251.25 C98.64579712 250.06019531 98.18612549 248.87039063 97.71252441 247.64453125 C97.26622681 246.48824219 96.8199292 245.33195313 96.36010742 244.140625 C95.97594162 243.14579102 95.59177582 242.15095703 95.19596863 241.12597656 C93.77963973 237.42403084 92.3917246 233.7112656 91 230 C52.39 230 13.78 230 -26 230 C-32.77827702 248.77176171 -32.77827702 248.77176171 -39.55200195 267.54516602 C-40.40559742 269.90647216 -41.25934685 272.26772266 -42.11328125 274.62890625 C-42.770401 276.45367493 -42.770401 276.45367493 -43.4407959 278.31530762 C-44.07978821 280.08037659 -44.07978821 280.08037659 -44.73168945 281.88110352 C-45.09809036 282.895923 -45.46449127 283.91074249 -45.84199524 284.95631409 C-47.13047477 288.34293834 -48.57265239 291.66952223 -50 295 C-71.45 295 -92.9 295 -115 295 C-102.4163804 261.82500286 -102.4163804 261.82500286 -96.39407349 246.50204468 C-95.2558659 243.60589553 -94.11976912 240.70892512 -92.98413086 237.81176758 C-91.41114088 233.79895875 -89.83761208 229.78636199 -88.26367188 225.77392578 C-84.85493198 217.08171146 -81.45712611 208.38523446 -78.0625 199.6875 C-77.74066742 198.86305389 -77.41883484 198.03860779 -77.08724976 197.18917847 C-71.17214771 182.033512 -65.29299936 166.86398185 -59.41677856 151.69320679 C-53.27497364 135.83900357 -47.09547172 119.99993702 -40.89083862 104.17022705 C-34.95443626 89.02290885 -29.06154399 73.85910063 -23.1875 58.6875 C-17.61611632 44.29953651 -12.02868716 29.91834958 -6.375 15.5625 C-5.963069 14.51538345 -5.963069 14.51538345 -5.54281616 13.44711304 C-4.78751019 11.52808662 -4.03081663 9.60961526 -3.2734375 7.69140625 C-2.85497559 6.63123291 -2.43651367 5.57105957 -2.00537109 4.47875977 C-1 2 -1 2 0 0 Z M31 71 C30.75547089 71.67982941 30.51094177 72.35965881 30.25900269 73.06008911 C9.2968809 131.33073028 9.2968809 131.33073028 0.75 154.5 C0.46268005 155.27941956 0.17536011 156.05883911 -0.1206665 156.86187744 C-4.74397339 169.39531838 -4.74397339 169.39531838 -6.15527344 172.72851562 C-7.17428042 175.0647315 -7.17428042 175.0647315 -7 178 C18.74 178 44.48 178 71 178 C70.20556046 173.23336276 69.13656461 169.25000924 67.4296875 164.80859375 C67.02570992 163.73702782 67.02570992 163.73702782 66.61357117 162.64381409 C65.70584784 160.23973285 64.79036887 157.83867948 63.875 155.4375 C63.22723721 153.72611802 62.58003729 152.0145229 61.93334961 150.30273438 C60.47333791 146.44024001 59.01020524 142.57894448 57.54541016 138.71826172 C54.64837629 131.07796183 51.76729659 123.43167137 48.88671875 115.78515625 C48.35931791 114.38528802 47.83191313 112.98542128 47.30450439 111.58555603 C46.51315135 109.4851154 45.72180068 107.38467388 44.93048096 105.2842207 C42.12373708 97.83451619 39.31404328 90.3859251 36.50390625 82.9375 C35.82058479 81.12627403 35.82058479 81.12627403 35.12345886 79.27845764 C34.08234775 76.51895597 33.04119902 73.7594685 32 71 C31.67 71 31.34 71 31 71 Z " fill="#FF2917" transform="translate(1832,361)"/>
<path d="M0 0 C176.87477639 0 176.87477639 0 201 22 C201.65613281 22.58652344 202.31226563 23.17304688 202.98828125 23.77734375 C217.78716991 37.72308141 226.1431485 58.31562402 227.17700195 78.4465332 C227.70401788 109.4438882 224.21065631 135.83866822 201.7578125 159.34765625 C166.15701379 193.3726819 104.56364249 185 61 185 C61 221.3 61 257.6 61 295 C40.87 295 20.74 295 0 295 C0 197.65 0 100.3 0 0 Z M61 51 C61 78.39 61 105.78 61 134 C109.26540258 137.55209533 109.26540258 137.55209533 154 120 C162.47437943 110.7311475 165.34033343 100.70532411 165.21484375 88.3515625 C164.49647702 77.14504149 159.20935293 68.47570404 151.2421875 60.82421875 C138.92601761 50.80392025 123.63692151 50.84266761 108.55859375 50.90234375 C107.34884888 50.90335083 106.139104 50.90435791 104.8927002 50.90539551 C100.40762371 50.91059649 95.92256083 50.92455759 91.4375 50.9375 C81.393125 50.958125 71.34875 50.97875 61 51 Z " fill="#FF2917" transform="translate(784,361)"/>
<path d="M0 0 C20.13 0 40.26 0 61 0 C61 80.19 61 160.38 61 243 C109.84 243 158.68 243 209 243 C209 259.5 209 276 209 293 C140.03 293 71.06 293 0 293 C0 196.31 0 99.62 0 0 Z " fill="#FF2917" transform="translate(2046,363)"/>
<path d="M0 0 C19.8 0 39.6 0 60 0 C60 97.35 60 194.7 60 295 C40.2 295 20.4 295 0 295 C0 197.65 0 100.3 0 0 Z " fill="#FF2917" transform="translate(1631,361)"/>
<path d="M0 0 C19.8 0 39.6 0 60 0 C60 97.35 60 194.7 60 295 C40.2 295 20.4 295 0 295 C0 197.65 0 100.3 0 0 Z " fill="#FF2917" transform="translate(325,361)"/>
<path d="M0 0 C39.93 0 79.86 0 121 0 C121 6.6 121 13.2 121 20 C104.17 20 87.34 20 70 20 C70 37.16 70 54.32 70 72 C86.83 72 103.66 72 121 72 C121 78.6 121 85.2 121 92 C81.07 92 41.14 92 0 92 C0 85.4 0 78.8 0 72 C16.5 72 33 72 50 72 C50 54.84 50 37.68 50 20 C33.5 20 17 20 0 20 C0 13.4 0 6.8 0 0 Z " fill="#242E2F" transform="translate(144,457)"/>
<path d="M0 0 C6.27 0 12.54 0 19 0 C19 16.5 19 33 19 50 C29.56 50 40.12 50 51 50 C51 34.82 51 19.64 51 4 C57.27 4 63.54 4 70 4 C70 19.18 70 34.36 70 50 C80.56 50 91.12 50 102 50 C102 33.5 102 17 102 0 C108.27 0 114.54 0 121 0 C121 23.1 121 46.2 121 70 C81.07 70 41.14 70 0 70 C0 46.9 0 23.8 0 0 Z " fill="#242E2F" transform="translate(144,362)"/>
<path d="M0 0 C6.27 0 12.54 0 19 0 C19 11.88 19 23.76 19 36 C52.66 36 86.32 36 121 36 C121 42.6 121 49.2 121 56 C87.34 56 53.68 56 19 56 C19 68.21 19 80.42 19 93 C12.73 93 6.46 93 0 93 C0 62.31 0 31.62 0 0 Z " fill="#242E2F" transform="translate(144,566)"/>
</svg>
