<svg width="24" height="35" viewBox="0 0 24 35" fill="none" xmlns="http://www.w3.org/2000/svg">
<mask id="mask0_127_312" style="mask-type:alpha" maskUnits="userSpaceOnUse" x="0" y="0" width="24" height="35">
<rect width="24" height="35" fill="#D9D9D9"/>
</mask>
<g mask="url(#mask0_127_312)">
<path d="M9.5 12.3958C10.1531 12.3958 10.7122 12.1531 11.1773 11.6676C11.6424 11.1821 11.875 10.5984 11.875 9.91667C11.875 9.23489 11.6424 8.65126 11.1773 8.16576C10.7122 7.68025 10.1531 7.4375 9.5 7.4375C8.84688 7.4375 8.28776 7.68025 7.82266 8.16576C7.35755 8.65126 7.125 9.23489 7.125 9.91667C7.125 10.5984 7.35755 11.1821 7.82266 11.6676C8.28776 12.1531 8.84688 12.3958 9.5 12.3958ZM9.5 21.5068C11.9146 19.1929 13.7057 17.0908 14.8734 15.2004C16.0411 13.31 16.625 11.6314 16.625 10.1646C16.625 7.91267 15.9372 6.06879 14.5617 4.63294C13.1862 3.19709 11.499 2.47917 9.5 2.47917C7.50104 2.47917 5.8138 3.19709 4.43828 4.63294C3.06276 6.06879 2.375 7.91267 2.375 10.1646C2.375 11.6314 2.95885 13.31 4.12656 15.2004C5.29427 17.0908 7.08542 19.1929 9.5 21.5068ZM9.5 24.7917C6.31354 21.9613 3.93359 19.3323 2.36016 16.9048C0.786719 14.4773 0 12.2306 0 10.1646C0 7.06562 0.954948 4.59679 2.86484 2.75807C4.77474 0.919358 6.98646 0 9.5 0C12.0135 0 14.2253 0.919358 16.1352 2.75807C18.0451 4.59679 19 7.06562 19 10.1646C19 12.2306 18.2133 14.4773 16.6398 16.9048C15.0664 19.3323 12.6865 21.9613 9.5 24.7917Z" fill="white"/>
</g>
</svg>
