<svg width="24" height="24" viewBox="0 0 24 24" fill="none" xmlns="http://www.w3.org/2000/svg">
<mask id="mask0_127_322" style="mask-type:alpha" maskUnits="userSpaceOnUse" x="0" y="0" width="24" height="24">
<rect width="24" height="24" fill="#D9D9D9"/>
</mask>
<g mask="url(#mask0_127_322)">
<path d="M2 18.4556C1.45 18.4556 0.979167 18.2665 0.5875 17.8881C0.195833 17.5098 0 17.055 0 16.5237V4.93195C0 4.40067 0.195833 3.94585 0.5875 3.56751C0.979167 3.18917 1.45 3 2 3H18C18.55 3 19.0208 3.18917 19.4125 3.56751C19.8042 3.94585 20 4.40067 20 4.93195V16.5237C20 17.055 19.8042 17.5098 19.4125 17.8881C19.0208 18.2665 18.55 18.4556 18 18.4556H2ZM10 11.6938L2 6.86391V16.5237H18V6.86391L10 11.6938ZM10 9.76184L18 4.93195H2L10 9.76184ZM2 6.86391V4.93195V16.5237V6.86391Z" fill="white"/>
</g>
</svg>
