<svg width="67" height="67" viewBox="0 0 67 67" fill="none" xmlns="http://www.w3.org/2000/svg">
<g opacity="0.7">
<circle cx="33.5" cy="33.5" r="32.5" fill="white" stroke="#FE2917" stroke-width="2"/>
<mask id="mask0_127_228" style="mask-type:alpha" maskUnits="userSpaceOnUse" x="14" y="14" width="39" height="39">
<rect x="14" y="14" width="38.49" height="38.49" fill="#D9D9D9"/>
</mask>
<g mask="url(#mask0_127_228)">
<path d="M38.8581 31.6413C39.5264 31.6413 40.0944 31.4074 40.5621 30.9396C41.0299 30.4719 41.2638 29.9039 41.2638 29.2356C41.2638 28.5674 41.0299 27.9994 40.5621 27.5317C40.0944 27.0639 39.5264 26.83 38.8581 26.83C38.1899 26.83 37.6219 27.0639 37.1542 27.5317C36.6864 27.9994 36.4525 28.5674 36.4525 29.2356C36.4525 29.9039 36.6864 30.4719 37.1542 30.9396C37.6219 31.4074 38.1899 31.6413 38.8581 31.6413ZM27.6319 31.6413C28.3001 31.6413 28.8681 31.4074 29.3359 30.9396C29.8036 30.4719 30.0375 29.9039 30.0375 29.2356C30.0375 28.5674 29.8036 27.9994 29.3359 27.5317C28.8681 27.0639 28.3001 26.83 27.6319 26.83C26.9637 26.83 26.3957 27.0639 25.9279 27.5317C25.4601 27.9994 25.2263 28.5674 25.2263 29.2356C25.2263 29.9039 25.4601 30.4719 25.9279 30.9396C26.3957 31.4074 26.9637 31.6413 27.6319 31.6413ZM33.245 42.0656C35.0626 42.0656 36.7131 41.5511 38.1966 40.522C39.6801 39.493 40.7559 38.1365 41.4241 36.4525H25.0659C25.7341 38.1365 26.81 39.493 28.2934 40.522C29.7769 41.5511 31.4274 42.0656 33.245 42.0656ZM33.245 49.2825C31.0265 49.2825 28.9416 48.8615 26.9904 48.0196C25.0392 47.1776 23.3419 46.0349 21.8985 44.5916C20.4551 43.1482 19.3124 41.4509 18.4705 39.4996C17.6285 37.5484 17.2075 35.4635 17.2075 33.245C17.2075 31.0265 17.6285 28.9416 18.4705 26.9904C19.3124 25.0392 20.4551 23.3419 21.8985 21.8985C23.3419 20.4551 25.0392 19.3124 26.9904 18.4705C28.9416 17.6285 31.0265 17.2075 33.245 17.2075C35.4635 17.2075 37.5484 17.6285 39.4996 18.4705C41.4509 19.3124 43.1482 20.4551 44.5916 21.8985C46.0349 23.3419 47.1776 25.0392 48.0196 26.9904C48.8615 28.9416 49.2825 31.0265 49.2825 33.245C49.2825 35.4635 48.8615 37.5484 48.0196 39.4996C47.1776 41.4509 46.0349 43.1482 44.5916 44.5916C43.1482 46.0349 41.4509 47.1776 39.4996 48.0196C37.5484 48.8615 35.4635 49.2825 33.245 49.2825ZM33.245 46.075C36.8267 46.075 39.8605 44.8321 42.3463 42.3463C44.8321 39.8605 46.075 36.8267 46.075 33.245C46.075 29.6633 44.8321 26.6296 42.3463 24.1437C39.8605 21.6579 36.8267 20.415 33.245 20.415C29.6633 20.415 26.6296 21.6579 24.1437 24.1437C21.6579 26.6296 20.415 29.6633 20.415 33.245C20.415 36.8267 21.6579 39.8605 24.1437 42.3463C26.6296 44.8321 29.6633 46.075 33.245 46.075Z" fill="#FE2917"/>
</g>
</g>
</svg>
