<svg width="125" height="120" viewBox="0 0 125 120" fill="none" xmlns="http://www.w3.org/2000/svg">
<mask id="mask0_127_276" style="mask-type:alpha" maskUnits="userSpaceOnUse" x="0" y="0" width="125" height="120">
<rect width="125" height="120" fill="#D9D9D9"/>
</mask>
<g mask="url(#mask0_127_276)">
<path d="M57.0315 63L79.2073 41.7113L75.4912 38.1438L57.0315 55.865L49.7399 48.865L46.0237 52.4325L57.0315 63ZM62.5003 98.385C72.2893 90.205 80.0285 81.8858 85.7177 73.4275C91.407 64.9692 94.2516 57.6537 94.2516 51.4812C94.2516 42.3337 91.2351 34.7838 85.2021 28.8313C79.1691 22.8796 71.6018 19.9037 62.5003 19.9037C53.3987 19.9037 45.8314 22.8796 39.7985 28.8313C33.7655 34.7838 30.749 42.3337 30.749 51.4812C30.749 57.6537 33.5936 64.9692 39.2828 73.4275C44.9721 81.8858 52.7112 90.205 62.5003 98.385ZM62.5003 105.096C50.2607 94.7054 41.0411 85.0146 34.8414 76.0238C28.6409 67.0337 25.5406 58.8529 25.5406 51.4812C25.5406 40.9037 29.1283 32.1792 36.3037 25.3075C43.4782 18.4358 52.2104 15 62.5003 15C72.7902 15 81.5224 18.4358 88.6969 25.3075C95.8723 32.1792 99.4599 40.9037 99.4599 51.4812C99.4599 58.8529 96.3597 67.0337 90.1591 76.0238C83.9595 85.0146 74.7399 94.7054 62.5003 105.096Z" fill="#1C1B1F"/>
</g>
</svg>
