<svg width="125" height="120" viewBox="0 0 125 120" fill="none" xmlns="http://www.w3.org/2000/svg">
<mask id="mask0_127_279" style="mask-type:alpha" maskUnits="userSpaceOnUse" x="0" y="0" width="125" height="120">
<rect width="125" height="120" fill="#D9D9D9"/>
</mask>
<g mask="url(#mask0_127_279)">
<path d="M62.5004 104.807C52.0368 101.826 43.3446 95.7414 36.4235 86.5523C29.5025 77.3631 26.042 67.0123 26.042 55.4998V28.461L62.5004 15.3848L98.9587 28.461V56.901C98.9587 57.3427 98.9374 57.8081 98.8949 58.2973H93.6905C93.7104 57.8081 93.7252 57.3427 93.7347 56.901C93.7452 56.4602 93.7504 55.9931 93.7504 55.4998V31.8748L62.5004 20.721L31.2504 31.8748V55.4998C31.2504 65.5831 34.2018 74.7498 40.1045 82.9998C46.0073 91.2498 53.4726 96.7498 62.5004 99.4998V104.807ZM88.542 105V89.9998H72.917V84.9998H88.542V69.9998H93.7504V84.9998H109.375V89.9998H93.7504V105H88.542ZM57.1918 72.4998H67.809L64.9144 57.0473C66.45 56.5348 67.7169 55.6269 68.7152 54.3235C69.7135 53.0194 70.2126 51.5781 70.2126 49.9998C70.2126 47.9639 69.4565 46.221 67.9444 44.771C66.4322 43.321 64.6145 42.596 62.4913 42.596C60.3671 42.596 58.5525 43.321 57.0472 44.771C55.5412 46.221 54.7881 47.9639 54.7881 49.9998C54.7881 51.5781 55.2873 53.0194 56.2855 54.3235C57.2838 55.6269 58.5507 56.5348 60.0863 57.0473L57.1918 72.4998Z" fill="#1C1B1F"/>
</g>
</svg>
