<svg width="125" height="120" viewBox="0 0 125 120" fill="none" xmlns="http://www.w3.org/2000/svg">
<mask id="mask0_127_282" style="mask-type:alpha" maskUnits="userSpaceOnUse" x="0" y="0" width="125" height="120">
<rect width="125" height="120" fill="#D9D9D9"/>
</mask>
<g mask="url(#mask0_127_282)">
<path d="M29.6244 95.5775C25.8345 95.5775 22.6205 94.3058 19.9825 91.7625C17.3453 89.22 16.0268 86.1325 16.0268 82.5H8.81451V33.0775C8.81451 30.7758 9.61747 28.8542 11.2234 27.3125C12.8293 25.7708 14.831 25 17.2286 25H86.1387V43.0775H98.1583L116.187 66.3463V82.5H107.773C107.773 86.1325 106.446 89.22 103.794 91.7625C101.14 94.3058 97.9183 95.5775 94.1283 95.5775C90.3375 95.5775 87.1235 94.3058 84.4864 91.7625C81.8484 89.22 80.5294 86.1325 80.5294 82.5H43.2702C43.2702 86.1542 41.9434 89.2471 39.2898 91.7788C36.637 94.3113 33.4152 95.5775 29.6244 95.5775ZM29.6478 90.5775C31.9916 90.5775 33.9799 89.7938 35.6127 88.2263C37.2455 86.6588 38.0619 84.75 38.0619 82.5C38.0619 80.25 37.2455 78.3413 35.6127 76.7738C33.9799 75.2063 31.9916 74.4225 29.6478 74.4225C27.3041 74.4225 25.3158 75.2063 23.683 76.7738C22.0511 78.3413 21.2351 80.25 21.2351 82.5C21.2351 84.75 22.0511 86.6588 23.683 88.2263C25.3158 89.7938 27.3041 90.5775 29.6478 90.5775ZM14.0228 77.5H17.3887C18.1301 75.295 19.6392 73.3975 21.9161 71.8075C24.193 70.2175 26.7702 69.4225 29.6478 69.4225C32.3926 69.4225 34.9369 70.2017 37.2807 71.76C39.6244 73.3175 41.1669 75.2308 41.9083 77.5H80.9304V30H17.2286C16.4274 30 15.6926 30.3204 15.0241 30.9613C14.3566 31.6021 14.0228 32.3075 14.0228 33.0775V77.5ZM94.1518 90.5775C96.4955 90.5775 98.4834 89.7938 100.115 88.2263C101.748 86.6588 102.565 84.75 102.565 82.5C102.565 80.25 101.748 78.3413 100.115 76.7738C98.4834 75.2063 96.4955 74.4225 94.1518 74.4225C91.808 74.4225 89.8197 75.2063 88.1869 76.7738C86.5541 78.3413 85.7377 80.25 85.7377 82.5C85.7377 84.75 86.5541 86.6588 88.1869 88.2263C89.8197 89.7938 91.808 90.5775 94.1518 90.5775ZM86.1387 67.5H110.678L95.3536 48.0775H86.1387V67.5Z" fill="#1C1B1F"/>
</g>
</svg>
